<?xml version="1.0" ?><svg style="enable-background:new 0 0 128 128;" version="1.1" viewBox="0 0 128 128" xml:space="preserve" xmlns="http://www.w3.org/2000/svg" xmlns:xlink="http://www.w3.org/1999/xlink"><g id="Layer_1"/><g id="Layer_2"/><g id="Layer_3"/><g id="Layer_4"/><g id="Layer_5"/><g id="Layer_6"/><g id="Layer_7"/><g id="Layer_8"/><g id="Layer_9"/><g id="Layer_10"/><g id="Layer_11"/><g id="Layer_12"/><g id="Layer_13"/><g id="Layer_14"/><g id="Layer_15"/><g id="Layer_16"/><g id="Layer_17"/><g id="Layer_18"/><g id="Layer_19"/><g id="Layer_20"><g><path d="M44.8,93.88c-0.05,0-0.1,0-0.14,0C23.1,92.33,5.34,75.67,2.43,54.27C2.14,52.21,2,50.1,2,48v-0.33    c0-0.42,0.01-0.83,0.02-1.23c0.02-0.55,0.05-1.07,0.1-1.6C3.72,20.83,23.88,2,48,2c24.01,0,44.17,18.74,45.88,42.66    c0.04,0.58-0.17,1.14-0.58,1.55l-0.17,0.16c-0.01,0.01-0.13,0.12-0.15,0.14c-0.02,0.02-0.04,0.05-0.07,0.07L46.58,92.91    c-0.15,0.14-0.23,0.23-0.32,0.32C45.89,93.65,45.35,93.88,44.8,93.88z M48,6C25.97,6,7.57,23.19,6.11,45.13    c-0.04,0.5-0.07,0.96-0.09,1.44C6.01,46.92,6,47.29,6,47.67V48c0,1.92,0.13,3.84,0.39,5.73C9.01,72.97,24.77,88,44.03,89.81    l45.78-45.78C87.81,22.63,69.62,6,48,6z M93.04,46.45c-0.02,0.02-0.03,0.04-0.05,0.06C93,46.49,93.02,46.47,93.04,46.45z"/><path d="M61,125.52c-0.99,0-1.85-0.73-1.98-1.74c-0.15-1.09,0.62-2.1,1.72-2.25c3.69-0.49,7.04-2.15,9.68-4.79l46.34-46.34    c3.18-3.18,4.93-7.41,4.93-11.92s-1.75-8.73-4.93-11.92c-6.4-6.4-16.94-6.55-23.5-0.33l-0.12,0.12c-0.01,0.01-0.13,0.12-0.15,0.14    c-0.02,0.02-0.04,0.05-0.07,0.07L46.58,92.91c-0.15,0.14-0.23,0.23-0.32,0.32c-6.24,6.57-6.09,17.12,0.32,23.52    c2.64,2.64,5.99,4.29,9.68,4.79c1.09,0.15,1.86,1.15,1.72,2.25c-0.15,1.1-1.15,1.87-2.25,1.72c-4.57-0.61-8.71-2.66-11.98-5.92    c-8.06-8.06-8.23-20.83-0.41-29.08c0.14-0.15,0.3-0.32,0.46-0.47L90.04,43.8c0.06-0.07,0.13-0.13,0.19-0.19l0.17-0.16    c0.01-0.01,0.08-0.08,0.1-0.09c8.25-7.83,21.03-7.65,29.08,0.41c3.94,3.94,6.11,9.17,6.11,14.74s-2.17,10.81-6.11,14.74    l-46.34,46.34c-3.27,3.27-7.41,5.31-11.98,5.92C61.17,125.52,61.09,125.52,61,125.52z M93.04,46.45    c-0.02,0.02-0.03,0.04-0.05,0.06C93,46.49,93.02,46.47,93.04,46.45z"/><path d="M96,96c-0.51,0-1.02-0.2-1.41-0.59l-6-6c-0.78-0.78-0.78-2.05,0-2.83c0.78-0.78,2.05-0.78,2.83,0l6,6    c0.78,0.78,0.78,2.05,0,2.83C97.02,95.8,96.51,96,96,96z"/><path d="M86,86c-0.51,0-1.02-0.2-1.41-0.59l-16-16c-0.78-0.78-0.78-2.05,0-2.83c0.78-0.78,2.05-0.78,2.83,0l16,16    c0.78,0.78,0.78,2.05,0,2.83C87.02,85.8,86.51,86,86,86z"/><path d="M28,55H4.41c-0.99,0-1.83-0.72-1.98-1.7C2.16,51.49,2.01,49.64,2,47.8v-0.13c0-0.42,0.01-0.83,0.02-1.23    c0.02-0.55,0.05-1.07,0.1-1.6C2.2,43.8,3.07,43,4.11,43H25c1.1,0,2,0.9,2,2s-0.9,2-2,2H6.01C6,47.22,6,47.44,6,47.67v0.12    c0.01,1.07,0.06,2.14,0.17,3.21H28c1.1,0,2,0.9,2,2S29.1,55,28,55z"/><path d="M83.67,55H33c-1.1,0-2-0.9-2-2s0.9-2,2-2h49.84l4-4H30c-1.1,0-2-0.9-2-2s0.9-2,2-2h61.67c0.81,0,1.54,0.49,1.85,1.23    c0.31,0.75,0.14,1.61-0.43,2.18c-0.01,0.01-0.08,0.08-0.1,0.1c-0.02,0.02-0.04,0.05-0.07,0.07l-7.83,7.83    C84.71,54.79,84.2,55,83.67,55z M93.03,46.45c-0.02,0.02-0.03,0.04-0.05,0.05C93,46.49,93.02,46.47,93.03,46.45z M93.04,46.45    C93.04,46.45,93.03,46.45,93.04,46.45C93.03,46.45,93.04,46.45,93.04,46.45z M93.04,46.45C93.04,46.45,93.04,46.45,93.04,46.45    C93.04,46.45,93.04,46.45,93.04,46.45z M93.04,46.45C93.04,46.45,93.04,46.45,93.04,46.45C93.04,46.45,93.04,46.45,93.04,46.45z"/><path d="M83,67c-0.51,0-1.02-0.2-1.41-0.59c-0.78-0.78-0.78-2.05,0-2.83l14-14c0.78-0.78,2.05-0.78,2.83,0    c0.78,0.78,0.78,2.05,0,2.83l-14,14C84.02,66.8,83.51,67,83,67z"/></g></g></svg>