<?xml version="1.0" ?><svg viewBox="0 0 512 512" xmlns="http://www.w3.org/2000/svg"><g id="Movies"><rect height="16" width="31" x="273.1035" y="296.756"/><rect height="16" width="31" x="173.1035" y="296.756"/><rect height="16" width="27.6904" x="323.1035" y="296.756"/><rect height="16" width="31" x="223.1035" y="296.756"/><path d="M401.2393,215.2872H152.46L385.561,129.588a8.0011,8.0011,0,0,0,4.7481-10.2695L374.9536,77.5524a8,8,0,0,0-10.2695-4.7481L108,167.174a8.0009,8.0009,0,0,0-4.748,10.2695L118.6074,219.21a7.9637,7.9637,0,0,0,1.348,2.3269,8.0092,8.0092,0,0,0-.1981,1.7507V417.0846a22.63,22.63,0,0,0,22.6045,22.6045h244.273a22.63,22.63,0,0,0,22.6045-22.6045V223.2872A8,8,0,0,0,401.2393,215.2872Zm-8,44.5h-33.161v-28.5h33.161Zm-257.482,0v-28.5h33.1609v28.5Zm73.6707-28.5h35.3525v28.5H209.428Zm75.8623,0h34.2781v28.5H285.29ZM233.191,168.56,200.01,180.7584l-9.8343-26.749,33.181-12.199Zm28.1874-40.7277,32.1726-11.8282,9.8343,26.749-32.1727,11.8283Zm111.1529-10.5006L341.407,128.7741l-9.8343-26.7492,31.1241-11.4427ZM152.154,167.9879l9.8343,26.7492L130.8643,206.18l-9.8345-26.749ZM386.6348,423.6891H142.3618a6.6122,6.6122,0,0,1-6.6045-6.6045V275.7868h257.482V417.0846A6.6122,6.6122,0,0,1,386.6348,423.6891Z"/><path d="M355.7639,348.2426H173.2326a10.45,10.45,0,0,0-10.45,10.45v28.7747a9.8063,9.8063,0,0,0,9.8063,9.8064H356.4072a9.8063,9.8063,0,0,0,9.8062-9.8064V358.6922A10.45,10.45,0,0,0,355.7639,348.2426Z"/></g></svg>