<?xml version="1.0" ?><svg viewBox="0 0 512 512" xmlns="http://www.w3.org/2000/svg"><g id="Party"><path d="M94.3262,133.042a8.179,8.179,0,1,0,8.18,8.1787A8.1879,8.1879,0,0,0,94.3262,133.042Z"/><path d="M94.3262,126.0068a8,8,0,0,0,8-8v-16.72a8,8,0,1,0-16,0v16.72A8,8,0,0,0,94.3262,126.0068Z"/><path d="M94.3262,156.4351a8,8,0,0,0-8,8v16.72a8,8,0,0,0,16,0v-16.72A8,8,0,0,0,94.3262,156.4351Z"/><path d="M71.1123,133.2207h-16.72a8,8,0,1,0,0,16h16.72a8,8,0,0,0,0-16Z"/><path d="M134.2607,149.2207a8,8,0,0,0,0-16h-16.72a8,8,0,0,0,0,16Z"/><path d="M417.6738,414.5566a8.1792,8.1792,0,1,0,8.1787,8.1792A8.1883,8.1883,0,0,0,417.6738,414.5566Z"/><path d="M417.6738,407.522a8,8,0,0,0,8-8V382.8013a8,8,0,0,0-16,0V399.522A8,8,0,0,0,417.6738,407.522Z"/><path d="M417.6738,437.95a8,8,0,0,0-8,8V462.67a8,8,0,0,0,16,0V445.95A8,8,0,0,0,417.6738,437.95Z"/><path d="M394.459,414.7358h-16.72a8,8,0,0,0,0,16h16.72a8,8,0,0,0,0-16Z"/><path d="M457.6074,414.7358h-16.72a8,8,0,0,0,0,16h16.72a8,8,0,0,0,0-16Z"/><path d="M256.042,144.9966c-77.1377,0-139.8945,62.7568-139.8945,139.895S178.9043,424.7861,256.042,424.7861,395.9375,362.03,395.9375,284.8916,333.1807,144.9966,256.042,144.9966Zm120.61,111.5122a123.3758,123.3758,0,0,1,3.02,20.3828H330.449a277.4472,277.4472,0,0,0-4.1944-40.9429A238.8626,238.8626,0,0,1,376.6523,256.5088ZM314.447,276.8916H197.6379a260.4607,260.4607,0,0,1,5.2908-45.114,263.3895,263.3895,0,0,1,106.2275,0A260.4532,260.4532,0,0,1,314.447,276.8916Zm-132.811,0H132.4128a123.3969,123.3969,0,0,1,3.02-20.3828,238.8662,238.8662,0,0,1,50.3977-20.56A277.4658,277.4658,0,0,0,181.636,276.8916Zm-46.2036,36.3823a123.3819,123.3819,0,0,1-3.02-20.3823H181.636A277.4646,277.4646,0,0,0,185.83,333.834,238.8548,238.8548,0,0,1,135.4324,313.2739Zm62.2055-20.3823H314.447a260.4429,260.4429,0,0,1-5.2908,45.1133,263.3847,263.3847,0,0,1-106.2275,0A260.4452,260.4452,0,0,1,197.6379,292.8916Zm132.8111,0h49.2231a123.3712,123.3712,0,0,1-3.0195,20.3823,238.8714,238.8714,0,0,1-50.3977,20.56A277.4754,277.4754,0,0,0,330.449,292.8916Zm-46.0237-128.61a238.8714,238.8714,0,0,1,20.56,50.3974,279.8865,279.8865,0,0,0-97.885,0,238.873,238.873,0,0,1,20.56-50.3976,124.2575,124.2575,0,0,1,56.7655,0Zm-78.3679,7.2577a259.0083,259.0083,0,0,0-16.49,46.8764,259.031,259.031,0,0,0-46.8766,16.49A124.6456,124.6456,0,0,1,206.0574,171.5394ZM227.66,405.5012a238.861,238.861,0,0,1-20.56-50.3976,279.8856,279.8856,0,0,0,97.8854,0,238.8787,238.8787,0,0,1-20.56,50.3976,124.2589,124.2589,0,0,1-56.7654,0Zm78.3677-7.258a259.0313,259.0313,0,0,0,16.49-46.8766,259.0273,259.0273,0,0,0,46.8767-16.49A124.6447,124.6447,0,0,1,306.0276,398.2432Z"/><path d="M256.042,137.19a8,8,0,0,0,8-8V49.33a8,8,0,0,0-16,0v79.86A8,8,0,0,0,256.042,137.19Z"/></g></svg>