<svg id="Layer_1" data-name="Layer 1" xmlns="http://www.w3.org/2000/svg" viewBox="0 0 122.88 119.98"><title>seminar-speech</title><path d="M92,57.93h5.69a.23.23,0,0,0,.16-.06.26.26,0,0,0,.07-.16v-9a.23.23,0,0,0-.06-.16.28.28,0,0,0-.17-.07H27.11a.24.24,0,0,0-.17.07.23.23,0,0,0-.06.16v9a.23.23,0,0,0,.06.16.24.24,0,0,0,.17.06H92ZM60.73,107.7c-11.82,0-4,.92-2.42-11.93,2.41-19.22,20.68-19.22,23.38,0,1.73,12.36,9.14,11.93-2.43,11.93H74.64c0,3.15-.5,2.79,2.75,4.55,1.67.9,4.77,1.58,7.42,2.62,4-3.45,11.21-1.17,12-7.5.12-1-2.16-3.35-2.67-5.1-1.12-1.79-1.52-4.6-.3-6.48.48-.75.29-1.77.29-2.8,0-10.24,17.93-10.25,17.93,0,0,1.29-.29,2,.4,3,1.17,1.71.57,4.73-.42,6.3-.64,1.86-3,4.06-2.85,5.1,1.66,8.44,12.7-.35,13.74,12.6H0c1.32-15.21,18.35-5.86,19.6-16.44.14-1.2-2.69-4.44-3.34-6.63-1.39-2.21-1.88-5.72-.37-8.06.61-.93.35-1.82.35-3.09,0-12.72,22.29-12.73,22.29,0,0,1.6-.37,2.06.5,3.33,1.46,2.11.71,5.86-.52,7.82-.79,2.3-3.8,5.33-3.54,6.63,1.87,9.5,14.36,2,17.74,12.53,2.73-1.68,7.33-2.3,10.22-4s2.38-1.47,2.36-4.33ZM94.06,61.63v19a14.64,14.64,0,0,0-3.69,3V61.63H35.31v9.05c-.35-.15-.7-.28-1.06-.4a21,21,0,0,0-2.63-.73V61.63H27.11a4,4,0,0,1-2.77-1.15h0a3.9,3.9,0,0,1-1.15-2.76v-9A3.9,3.9,0,0,1,24.34,46h0a3.91,3.91,0,0,1,2.77-1.15h3.58V30.49a1.81,1.81,0,0,1,.48-1.24l5.26-6.62a5.69,5.69,0,1,1,2.88,2.29l-4.93,6.2V44.83h4.78c0-4.46,0-5.8,5.88-9.07,2.47-1.38,8.87-1.85,11.65-3.68A24.62,24.62,0,0,0,57.88,29l0-.08a25.32,25.32,0,0,1-2.66-3.68l-2.3-3.66a6.57,6.57,0,0,1-1.3-3.33,2.58,2.58,0,0,1,.22-1.2,2.26,2.26,0,0,1,.79-.92,2.93,2.93,0,0,1,.56-.28,57.2,57.2,0,0,1-.11-6.57,8.57,8.57,0,0,1,.28-1.48A9.65,9.65,0,0,1,59.76,1.6c1.43-.5.88-1.68,2.32-1.6,3.43.19,8.72,2.4,10.75,4.74,2.85,3.29,2.12,7.33,2,11.34h0a1.63,1.63,0,0,1,1.21,1.25,5.12,5.12,0,0,1-.63,3.14h0a.25.25,0,0,1,0,.07l-2.62,4.31a21,21,0,0,1-3.4,4.61l-.07.06.43.61c.45.67,1,1.43,1.45,2,2.84,1.77,9.1,2.25,11.55,3.61,5.35,3,5,4.78,5,9.07h9.89A3.9,3.9,0,0,1,100.42,46h0a3.9,3.9,0,0,1,1.15,2.76v9a3.91,3.91,0,0,1-1.15,2.77,4,4,0,0,1-2.77,1.15ZM60.88,44.83h0l1.84-8.74a3.91,3.91,0,0,1-.18-.35,14.1,14.1,0,0,1-2.24.72c-1-.3-1.13-2.61,0-3.33a12.56,12.56,0,0,1,2.44,1,1.86,1.86,0,0,1,2.22,0c.63-.42,1.26-.71,2-1.12,1.49.75,2,3.16-.11,3.68A5.16,5.16,0,0,1,65.4,36l-.05.13,1.85,8.74h0a39,39,0,0,0,3.22-11.45,25.47,25.47,0,0,1-1.84-2.49l-.36-.53a7.58,7.58,0,0,1-4.42,1.3A7.44,7.44,0,0,1,59,29.93a15,15,0,0,1-1.41,3.28l-.13.13a48.44,48.44,0,0,0,3.43,11.49ZM54.53,16.9a2.26,2.26,0,0,0-1.15.3.91.91,0,0,0-.34.39,1.29,1.29,0,0,0-.1.61A5.38,5.38,0,0,0,54,20.87h0l2.3,3.65a19.46,19.46,0,0,0,3.08,4.06,6.33,6.33,0,0,0,4.41,1.77,6.45,6.45,0,0,0,4.66-1.85,20.45,20.45,0,0,0,3.18-4.33l2.58-4.26a4.09,4.09,0,0,0,.55-2.27c-.06-.26-.35-.38-.83-.41h-.32l-.36,0a.66.66,0,0,1-.2,0,3.42,3.42,0,0,1-.71,0l.89-3.92c-6.58,1-11.5-3.85-18.45-1l.51,4.62a3.48,3.48,0,0,1-.8,0Zm-3.86,81H45.84a18.15,18.15,0,0,0,.94-3.69h4.57l-.09.68h0a20.54,20.54,0,0,1-.61,3Z"/></svg>