<?xml version="1.0" encoding="iso-8859-1"?>
<!-- Uploaded to: SVG Repo, www.svgrepo.com, Transformed by: SVG Repo Tools -->
<svg fill="#000000" height="800px" width="800px" version="1.1" id="Layer_1" xmlns="http://www.w3.org/2000/svg" xmlns:xlink="http://www.w3.org/1999/xlink" 
	 viewBox="0 0 512.001 512.001" xml:space="preserve">
<g>
	<g>
		<path d="M511.358,316.011c-1.295-3.558-4.38-6.164-8.104-6.846c-34.901-6.384-70.77-5.697-105.395,1.853
			c4.957-6.216,9.732-12.592,14.293-19.109c38.558-55.068,61.79-119.338,67.185-185.863c0.306-3.775-1.411-7.428-4.513-9.6
			c-3.103-2.173-7.123-2.538-10.564-0.959c-56.816,26.057-106.42,66.138-144.158,116.349c0-0.221,0.005-0.441,0.005-0.661
			c0-71.573-18.984-141.811-54.901-203.121c-1.914-3.267-5.417-5.275-9.203-5.275c-3.787,0-7.29,2.008-9.203,5.275
			c-35.918,61.311-54.902,131.549-54.902,203.121c0,0.221,0.005,0.44,0.005,0.661c-37.736-50.205-87.34-90.285-144.158-116.346
			c-3.443-1.58-7.462-1.214-10.565,0.957c-3.102,2.173-4.82,5.826-4.514,9.601c5.395,66.525,28.627,130.795,67.183,185.862
			c4.564,6.521,9.342,12.899,14.3,19.117c-34.652-7.556-70.51-8.24-105.4-1.859c-3.725,0.682-6.81,3.287-8.104,6.846
			c-1.295,3.558-0.606,7.537,1.811,10.453c30.346,36.617,70.162,64.626,115.146,80.998c4.016,1.461,8.069,2.82,12.147,4.092
			c-17.555,8.801-33.62,20.418-47.45,34.422c-2.66,2.694-3.693,6.598-2.714,10.256c0.98,3.658,3.826,6.522,7.478,7.524
			c15.538,4.267,31.56,6.401,47.616,6.401c15.788,0,31.606-2.064,47.025-6.191c23.181-6.211,44.81-16.926,63.628-31.396v65.983
			c0,5.891,4.775,10.667,10.667,10.667s10.667-4.775,10.667-10.667v-65.99c18.806,14.464,40.432,25.176,63.618,31.391
			c15.412,4.13,31.226,6.194,47.014,6.194c16.053,0,32.082-2.134,47.627-6.403c3.652-1.003,6.498-3.867,7.479-7.524
			c0.98-3.658-0.052-7.562-2.714-10.256c-13.819-13.994-29.878-25.606-47.436-34.411c4.078-1.271,8.13-2.631,12.144-4.093
			c44.983-16.372,84.8-44.381,115.146-80.998C511.964,323.548,512.653,319.571,511.358,316.011z M124.898,387.416
			c-35.245-12.827-67.037-33.401-92.941-60.011c36.488-3.693,73.611,0.842,108.567,13.343c23.715,24.102,50.29,44.709,79.341,61.517
			c-17.619,0.726-35.266-0.445-52.761-3.532c-0.066-0.012-0.131-0.022-0.196-0.033C152.723,396.195,138.589,392.399,124.898,387.416
			z M176.186,443.361c-20.752,5.555-42.318,6.877-63.349,3.962c15.741-12.251,33.765-21.493,53.064-27.165
			c14.572,2.431,29.233,3.661,43.899,3.661c3.745,0,7.491-0.086,11.235-0.245C207.271,432.372,192.151,439.082,176.186,443.361z
			 M154.035,324.08c-13.297-13.662-25.648-28.602-36.709-44.405c-32.701-46.705-53.719-100.41-61.335-156.361
			c49.976,26.299,93.255,64.418,125.952,111.118c4.197,5.99,8.261,12.208,12.122,18.5c4.717,45.496,17.108,89.821,36.633,130.96
			C202.558,367.627,176.867,347.598,154.035,324.08z M256.001,386.9c-28.036-53.955-42.773-114.308-42.773-175.724
			c0-61.384,14.737-121.718,42.773-175.671c28.035,53.952,42.771,114.286,42.771,175.671
			C298.773,272.593,284.037,332.945,256.001,386.9z M317.936,252.932c3.861-6.293,7.925-12.511,12.125-18.505
			c32.7-46.703,75.977-84.822,125.95-111.115c-7.616,55.951-28.635,109.658-61.336,156.364
			c-11.06,15.803-23.41,30.742-36.717,44.414c-22.811,23.494-48.499,43.521-76.65,59.795
			C300.83,342.749,313.22,298.428,317.936,252.932z M399.153,447.313c-21.04,2.915-42.604,1.596-63.346-3.963
			c-15.964-4.278-31.076-10.983-44.83-19.773c3.738,0.158,7.477,0.245,11.217,0.245c14.669,0,29.345-1.232,43.932-3.665
			C365.418,425.838,383.43,435.079,399.153,447.313z M387.102,387.417c-13.732,5-27.919,8.807-42.172,11.315
			c-17.521,3.091-35.183,4.263-52.805,3.537c29.072-16.822,55.652-37.432,79.352-61.522c34.91-12.498,72.055-17.037,108.565-13.342
			C454.141,354.015,422.348,374.59,387.102,387.417z"/>
	</g>
</g>
<g>
</g>
<g>
</g>
<g>
</g>
<g>
</g>
<g>
</g>
<g>
</g>
<g>
</g>
<g>
</g>
<g>
</g>
<g>
</g>
<g>
</g>
<g>
</g>
<g>
</g>
<g>
</g>
<g>
</g>
</svg>